<?xml version="1.0" encoding="UTF-8"?>
<svg id="a" xmlns="http://www.w3.org/2000/svg" width="291.09mm" height="47.62mm" viewBox="0 0 825.13 135"><path d="m177.8,0h-40c8.53,0,15.51,6.98,15.51,15.51v103.99c0,8.53-6.98,15.51-15.51,15.51h40c8.53,0,15.51-6.98,15.51-15.51V15.51c0-8.53-6.98-15.51-15.51-15.51Z" fill="#0073b3"/><path d="m153.3,119.49V15.51c0-8.53-6.98-15.51-15.51-15.51H15.51C6.98,0,0,6.98,0,15.51v119.49h137.8c8.53,0,15.51-6.98,15.51-15.51Z" fill="#393b41"/><path d="m37.68,27c0,3.11-1.05,5.73-3.16,7.85-2.1,2.12-4.67,3.18-7.67,3.18s-5.51-1.06-7.64-3.18c-2.13-2.12-3.19-4.73-3.19-7.85s1.06-5.6,3.19-7.72c2.13-2.12,4.67-3.18,7.64-3.18s5.57,1.06,7.67,3.18c2.11,2.12,3.16,4.69,3.16,7.72Zm-.58,91.23h-20.57V43.61h20.57v74.63Z" fill="#fff"/><path d="m77.01,27c0,3.11-1.05,5.73-3.16,7.85-2.11,2.12-4.67,3.18-7.67,3.18s-5.52-1.06-7.64-3.18c-2.13-2.12-3.19-4.73-3.19-7.85s1.07-5.6,3.19-7.72c2.12-2.12,4.67-3.18,7.64-3.18s5.57,1.06,7.67,3.18c2.1,2.12,3.16,4.69,3.16,7.72Zm-.58,91.23h-20.57V43.61h20.57v74.63Z" fill="#fff"/><path d="m136.96,56.51h-19.6v38.26c0,3.89.65,6.74,1.93,8.56,1.29,1.82,3.78,2.72,7.48,2.72,1.76,0,3.46-.14,5.09-.42,1.63-.28,3.14-.64,4.51-1.07v11.67c-2.19.91-4.89,1.58-8.09,2.01-3.2.43-6.35.65-9.44.65-6.79,0-12.16-2.19-16.12-6.58-3.95-4.39-5.93-10.69-5.93-18.91v-37.03h-8.83v-10.63l9.61-.52,6.89-24.84h12.9v24.71h19.6v11.41Z" fill="#fff"/><path d="m213.87,20.33h4.66v22.4h-4.66v-22.4Z" fill="#393b41"/><path d="m224.32,37.53c1.43.95,3.13,1.67,5.1,1.67,1.73,0,3.47-.61,3.47-2.31,0-4.04-9.59-3.54-9.59-10.4,0-3.37,2.69-6.39,7.51-6.39,2.38,0,4.39.54,5.68,1.19v4.18c-1.94-.95-3.74-1.46-5.54-1.46-1.43,0-2.69.51-2.69,2.07,0,3.81,9.59,3.26,9.59,10.4,0,4.08-3.57,6.6-8.26,6.6-2.62,0-5.24-.71-7.04-2.04l1.77-3.5Z" fill="#393b41"/><path d="m246.22,24.27h-6.53v-3.94h18.29l-1.22,3.94h-5.88v18.46h-4.66v-18.46Z" fill="#393b41"/><path d="m260.77,20.33h4.66v22.4h-4.66v-22.4Z" fill="#393b41"/><path d="m274.89,24.27h-6.53v-3.94h18.29l-1.22,3.94h-5.88v18.46h-4.66v-18.46Z" fill="#393b41"/><path d="m290.34,38.89c-.65-1.22-.99-2.79-.99-4.62v-13.94h4.66v13.67c0,1.16.24,2.18.65,2.96.78,1.46,2.28,2.24,4.35,2.24s3.54-.78,4.32-2.24c.44-.78.65-1.8.65-2.99v-13.63h4.66v13.94c0,1.84-.34,3.4-.99,4.62-1.46,2.86-4.52,4.18-8.67,4.18s-7.17-1.33-8.63-4.18Z" fill="#393b41"/><path d="m318.07,24.27h-6.53v-3.94h18.29l-1.22,3.94h-5.88v18.46h-4.66v-18.46Z" fill="#393b41"/><path d="m330.56,31.58c0-6.8,4.69-11.49,11.42-11.49s11.42,4.73,11.42,11.49-4.73,11.49-11.42,11.49-11.42-4.66-11.42-11.49Zm17.88,0c0-4.86-2.58-7.58-6.46-7.58s-6.46,2.69-6.46,7.58,2.62,7.62,6.46,7.62,6.46-2.69,6.46-7.62Z" fill="#393b41"/><path d="m365.01,20.33h4.66v22.4h-4.66v-22.4Z" fill="#393b41"/><path d="m379.13,24.27h-6.53v-3.94h18.29l-1.22,3.94h-5.88v18.46h-4.66v-18.46Z" fill="#393b41"/><path d="m397.54,20.22h3.77l9.14,22.51h-5l-2.18-5.47h-7.62l-2.07,5.47h-4.79l8.74-22.51Zm4.35,13.29l-1.33-3.77c-.54-1.63-.82-2.58-1.02-3.33h-.07c-.17.78-.51,1.73-1.12,3.37l-1.36,3.74h4.9Z" fill="#393b41"/><path d="m413.34,20.33h4.66v18.46h7.82v3.94h-12.48v-22.4Z" fill="#393b41"/><path d="m428.87,20.33h4.66v22.4h-4.66v-22.4Z" fill="#393b41"/><path d="m445.09,20.22h3.77l9.15,22.51h-5l-2.18-5.47h-7.62l-2.07,5.47h-4.79l8.74-22.51Zm4.35,13.29l-1.33-3.77c-.54-1.63-.82-2.58-1.02-3.33h-.07c-.17.78-.51,1.73-1.12,3.37l-1.36,3.74h4.9Z" fill="#393b41"/><path d="m477.21,42.73l-9.38-12.27c-.82-1.09-1.53-2.11-2.31-3.09h-.07c.1.82.1,2.21.1,3.3v12.07h-4.66v-22.4h4.66l9.01,11.8c.88,1.12,1.6,2.11,2.28,3.09h.07c-.07-1.19-.07-2.69-.07-3.74v-11.15h4.66v22.4h-4.28Z" fill="#393b41"/><path d="m485.87,31.58c0-6.8,4.69-11.49,11.42-11.49s11.42,4.73,11.42,11.49-4.73,11.49-11.42,11.49-11.42-4.66-11.42-11.49Zm17.88,0c0-4.86-2.58-7.58-6.46-7.58s-6.46,2.69-6.46,7.58,2.62,7.62,6.46,7.62,6.46-2.69,6.46-7.62Z" fill="#393b41"/><path d="m213.87,58.13h7.55c7.89,0,12.38,4.32,12.38,11.01s-5.13,11.39-12.82,11.39h-7.1v-22.4Zm7.21,18.46c5.54,0,7.75-3.37,7.75-7.31,0-4.52-2.69-7.21-7.85-7.21h-2.45v14.52h2.55Z" fill="#393b41"/><path d="m238.14,58.13h4.66v22.4h-4.66v-22.4Z" fill="#393b41"/><path d="m259.59,62.07h-6.53v-3.94h18.29l-1.22,3.94h-5.88v18.46h-4.66v-18.46Z" fill="#393b41"/><path d="m274.13,58.13h12.95l-1.22,3.94h-7.07v5.17h7.1v3.91h-7.1v5.44h8.26v3.94h-12.92v-22.4Z" fill="#393b41"/><path d="m309.22,79.03c-2.62,1.43-5.13,1.84-7.45,1.84-7.51,0-11.52-4.76-11.52-11.32s4.69-11.66,12.1-11.66c2.48,0,4.52.44,5.98,1.09v4.28c-1.8-.95-3.74-1.46-5.88-1.46-4.9,0-7.24,3.57-7.24,7.68,0,4.42,2.75,7.51,7.14,7.51,2.28,0,3.94-.68,5.58-1.63l1.29,3.67Z" fill="#393b41"/><path d="m329.22,80.53l-9.38-12.27c-.82-1.09-1.53-2.11-2.31-3.09h-.07c.1.82.1,2.21.1,3.3v12.07h-4.66v-22.4h4.66l9.01,11.8c.88,1.12,1.6,2.11,2.28,3.09h.07c-.07-1.19-.07-2.69-.07-3.74v-11.15h4.66v22.4h-4.28Z" fill="#393b41"/><path d="m337.88,69.38c0-6.8,4.69-11.49,11.42-11.49s11.42,4.73,11.42,11.49-4.73,11.49-11.42,11.49-11.42-4.66-11.42-11.49Zm17.88,0c0-4.86-2.58-7.58-6.46-7.58s-6.46,2.69-6.46,7.58,2.62,7.62,6.46,7.62,6.46-2.69,6.46-7.62Z" fill="#393b41"/><path d="m365.05,58.13h4.66v18.46h7.82v3.94h-12.48v-22.4Z" fill="#393b41"/><path d="m379.16,69.38c0-6.8,4.69-11.49,11.42-11.49s11.42,4.73,11.42,11.49-4.73,11.49-11.42,11.49-11.42-4.66-11.42-11.49Zm17.88,0c0-4.86-2.58-7.58-6.46-7.58s-6.46,2.69-6.46,7.58,2.62,7.62,6.46,7.62,6.46-2.69,6.46-7.62Z" fill="#393b41"/><path d="m425.56,79.03c-2.21,1.12-5.27,1.84-8.4,1.84-7.58,0-11.93-4.73-11.93-11.12,0-6.77,4.93-11.87,12.54-11.87,2.65,0,4.79.48,6.66,1.09v4.32c-1.83-.88-3.84-1.5-6.29-1.5-5.24,0-7.96,3.16-7.96,7.68s2.62,7.51,7.24,7.51c1.39,0,2.65-.24,3.47-.58v-6.87h4.66v9.49Z" fill="#393b41"/><path d="m430.72,58.13h4.66v22.4h-4.66v-22.4Z" fill="#393b41"/><path d="m446.94,58.02h3.77l9.14,22.51h-5l-2.18-5.47h-7.62l-2.07,5.47h-4.79l8.74-22.51Zm4.35,13.29l-1.33-3.77c-.54-1.63-.82-2.58-1.02-3.33h-.07c-.17.78-.51,1.73-1.12,3.37l-1.36,3.74h4.9Z" fill="#393b41"/><path d="m213.87,95.93h4.66v9.01h10.17v-9.01h4.66v22.4h-4.66v-9.42h-10.17v9.42h-4.66v-22.4Z" fill="#0073b3"/><path d="m239.63,114.49c-.65-1.22-.99-2.79-.99-4.62v-13.94h4.66v13.67c0,1.16.24,2.18.65,2.96.78,1.46,2.28,2.24,4.35,2.24s3.54-.78,4.32-2.24c.44-.78.65-1.8.65-2.99v-13.63h4.66v13.94c0,1.84-.34,3.4-.99,4.62-1.46,2.86-4.52,4.18-8.67,4.18s-7.17-1.33-8.63-4.18Z" fill="#0073b3"/><path d="m263.22,95.93h4.22l5.75,8.12c.75,1.05,1.29,1.9,1.8,2.79h.07c.44-.85,1.02-1.8,1.73-2.92l5.2-7.99h4.25v22.4h-4.66v-12.03c0-.88,0-1.9.03-2.69h-.03c-.27.58-1.16,1.87-1.53,2.45l-4.01,6.19h-2.11l-4.52-6.39c-.48-.65-1.02-1.36-1.5-2.21h-.07c.03.78.03,1.8.03,2.52v12.17h-4.66v-22.4Z" fill="#0073b3"/><path d="m297.87,95.82h3.77l9.14,22.51h-5l-2.18-5.47h-7.62l-2.07,5.47h-4.79l8.74-22.51Zm4.35,13.29l-1.33-3.77c-.54-1.63-.82-2.58-1.02-3.33h-.07c-.17.78-.51,1.73-1.12,3.37l-1.36,3.74h4.9Z" fill="#0073b3"/><path d="m329.99,118.33l-9.38-12.27c-.82-1.09-1.53-2.11-2.31-3.09h-.07c.1.82.1,2.21.1,3.3v12.07h-4.66v-22.4h4.66l9.01,11.8c.88,1.12,1.6,2.11,2.28,3.09h.07c-.07-1.19-.07-2.69-.07-3.74v-11.15h4.66v22.4h-4.28Z" fill="#0073b3"/><path d="m338.65,107.18c0-6.8,4.69-11.49,11.42-11.49s11.42,4.72,11.42,11.49-4.73,11.49-11.42,11.49-11.42-4.66-11.42-11.49Zm17.88,0c0-4.86-2.58-7.58-6.46-7.58s-6.46,2.69-6.46,7.58,2.62,7.62,6.46,7.62,6.46-2.69,6.46-7.62Z" fill="#0073b3"/><path d="m365.87,95.93h4.66v22.4h-4.66v-22.4Z" fill="#0073b3"/><path d="m375.92,95.93h7.55c7.89,0,12.38,4.32,12.38,11.01s-5.13,11.39-12.82,11.39h-7.11v-22.4Zm7.21,18.46c5.54,0,7.75-3.37,7.75-7.31,0-4.52-2.69-7.21-7.85-7.21h-2.45v14.52h2.55Z" fill="#0073b3"/><path d="m408.15,113.13c1.43.95,3.13,1.67,5.1,1.67,1.73,0,3.47-.61,3.47-2.31,0-4.05-9.59-3.54-9.59-10.4,0-3.37,2.69-6.39,7.51-6.39,2.38,0,4.39.54,5.68,1.19v4.18c-1.94-.95-3.74-1.46-5.54-1.46-1.43,0-2.69.51-2.69,2.07,0,3.81,9.59,3.26,9.59,10.4,0,4.08-3.57,6.59-8.26,6.59-2.62,0-5.24-.71-7.04-2.04l1.77-3.5Z" fill="#0073b3"/><path d="m426.04,95.93h12.95l-1.22,3.94h-7.07v5.17h7.11v3.91h-7.11v5.44h8.26v3.94h-12.92v-22.4Z" fill="#0073b3"/><path d="m459.94,118.33l-9.38-12.27c-.82-1.09-1.53-2.11-2.31-3.09h-.07c.1.82.1,2.21.1,3.3v12.07h-4.66v-22.4h4.66l9.01,11.8c.88,1.12,1.6,2.11,2.28,3.09h.07c-.07-1.19-.07-2.69-.07-3.74v-11.15h4.66v22.4h-4.28Z" fill="#0073b3"/><path d="m470.09,113.13c1.43.95,3.13,1.67,5.1,1.67,1.73,0,3.47-.61,3.47-2.31,0-4.05-9.59-3.54-9.59-10.4,0-3.37,2.69-6.39,7.51-6.39,2.38,0,4.39.54,5.68,1.19v4.18c-1.94-.95-3.74-1.46-5.54-1.46-1.43,0-2.69.51-2.69,2.07,0,3.81,9.59,3.26,9.59,10.4,0,4.08-3.57,6.59-8.26,6.59-2.62,0-5.24-.71-7.04-2.04l1.77-3.5Z" fill="#0073b3"/><path d="m487.96,95.93h4.66v22.4h-4.66v-22.4Z" fill="#0073b3"/><path d="m514.32,118.33l-9.38-12.27c-.82-1.09-1.53-2.11-2.31-3.09h-.07c.1.82.1,2.21.1,3.3v12.07h-4.66v-22.4h4.66l9.01,11.8c.88,1.12,1.6,2.11,2.28,3.09h.07c-.07-1.19-.07-2.69-.07-3.74v-11.15h4.66v22.4h-4.28Z" fill="#0073b3"/><path d="m543.24,116.83c-2.21,1.12-5.27,1.83-8.4,1.83-7.58,0-11.93-4.72-11.93-11.12,0-6.77,4.93-11.86,12.54-11.86,2.65,0,4.79.48,6.66,1.09v4.32c-1.84-.88-3.84-1.5-6.29-1.5-5.23,0-7.96,3.16-7.96,7.68s2.62,7.51,7.24,7.51c1.39,0,2.65-.24,3.47-.58v-6.87h4.66v9.49Z" fill="#0073b3"/><path d="m561.84,95.82h3.77l9.15,22.51h-5l-2.18-5.47h-7.62l-2.07,5.47h-4.79l8.74-22.51Zm4.35,13.29l-1.33-3.77c-.54-1.63-.82-2.58-1.02-3.33h-.07c-.17.78-.51,1.73-1.12,3.37l-1.36,3.74h4.9Z" fill="#0073b3"/><path d="m593.96,118.33l-9.38-12.27c-.82-1.09-1.53-2.11-2.31-3.09h-.07c.1.82.1,2.21.1,3.3v12.07h-4.66v-22.4h4.66l9.01,11.8c.88,1.12,1.6,2.11,2.28,3.09h.07c-.07-1.19-.07-2.69-.07-3.74v-11.15h4.66v22.4h-4.28Z" fill="#0073b3"/><path d="m603.68,95.93h7.55c7.89,0,12.38,4.32,12.38,11.01s-5.13,11.39-12.82,11.39h-7.11v-22.4Zm7.21,18.46c5.54,0,7.75-3.37,7.75-7.31,0-4.52-2.69-7.21-7.85-7.21h-2.45v14.52h2.55Z" fill="#0073b3"/><path d="m635.17,95.93h5.85c2.04,0,3.74.27,5.07.95,2.45,1.16,3.77,3.37,3.77,6.46,0,2.62-1.12,5.41-4.45,6.7-1.26.48-2.82.78-4.79.78h-.78v7.51h-4.66v-22.4Zm5.71,11.12c.99,0,1.8-.14,2.41-.44,1.19-.54,1.73-1.7,1.73-3.26,0-1.29-.51-2.45-1.63-3.13-.65-.38-1.46-.51-2.58-.51h-.99v7.34h1.05Z" fill="#0073b3"/><path d="m653.66,95.93h12.95l-1.22,3.94h-7.07v5.17h7.11v3.91h-7.11v5.44h8.26v3.94h-12.92v-22.4Z" fill="#0073b3"/><path d="m671.24,95.93h6.7c2.01,0,3.5.31,4.69.85,2.58,1.12,3.57,3.26,3.57,5.64,0,2.92-1.84,4.96-4.35,5.75v.07c.68.37,1.67,1.6,2.86,3.67l3.64,6.42h-5.34l-2.96-5.37c-1.12-2.11-1.9-2.96-2.45-3.09h-1.7v8.46h-4.66v-22.4Zm6.39,10.17c1.02,0,1.67-.17,2.24-.48.88-.54,1.5-1.46,1.5-2.72,0-1.19-.54-2.21-1.53-2.72-.51-.3-1.16-.48-2.18-.48h-1.77v6.39h1.73Z" fill="#0073b3"/><path d="m709.08,116.83c-2.62,1.43-5.13,1.83-7.45,1.83-7.51,0-11.52-4.76-11.52-11.32s4.69-11.66,12.1-11.66c2.48,0,4.52.44,5.98,1.09v4.28c-1.8-.95-3.74-1.46-5.88-1.46-4.9,0-7.24,3.57-7.24,7.68,0,4.42,2.75,7.51,7.14,7.51,2.28,0,3.94-.68,5.58-1.63l1.29,3.67Z" fill="#0073b3"/><path d="m712.75,95.93h12.95l-1.22,3.94h-7.07v5.17h7.11v3.91h-7.11v5.44h8.26v3.94h-12.92v-22.4Z" fill="#0073b3"/><path d="m730.33,95.93h5.85c2.04,0,3.74.27,5.07.95,2.45,1.16,3.77,3.37,3.77,6.46,0,2.62-1.12,5.41-4.45,6.7-1.26.48-2.82.78-4.79.78h-.78v7.51h-4.66v-22.4Zm5.71,11.12c.99,0,1.8-.14,2.41-.44,1.19-.54,1.73-1.7,1.73-3.26,0-1.29-.51-2.45-1.63-3.13-.65-.38-1.46-.51-2.58-.51h-.99v7.34h1.05Z" fill="#0073b3"/><path d="m753.85,99.87h-6.53v-3.94h18.29l-1.22,3.94h-5.88v18.46h-4.66v-18.46Z" fill="#0073b3"/><path d="m768.39,95.93h4.66v22.4h-4.66v-22.4Z" fill="#0073b3"/><path d="m777.35,107.18c0-6.8,4.69-11.49,11.42-11.49s11.42,4.72,11.42,11.49-4.73,11.49-11.42,11.49-11.42-4.66-11.42-11.49Zm17.88,0c0-4.86-2.58-7.58-6.46-7.58s-6.46,2.69-6.46,7.58,2.62,7.62,6.46,7.62,6.46-2.69,6.46-7.62Z" fill="#0073b3"/><path d="m820.84,118.33l-9.38-12.27c-.82-1.09-1.53-2.11-2.31-3.09h-.07c.1.82.1,2.21.1,3.3v12.07h-4.66v-22.4h4.66l9.01,11.8c.88,1.12,1.6,2.11,2.28,3.09h.07c-.07-1.19-.07-2.69-.07-3.74v-11.15h4.66v22.4h-4.28Z" fill="#0073b3"/><path d="m162.87,116.49v-3.6h8.16v-9.45h-8.16v-3.63h19.77v3.63h-8.55v9.45h8.55v3.6h-19.77Z" fill="#fff"/><path d="m178.47,93.99c.81-1.17,1.44-2.67,1.44-4.47,0-1.65-.63-3.3-2.34-3.3-3.87,0-3.39,8.55-9.42,8.55-2.91,0-5.46-2.31-5.46-6.42,0-2.04.45-3.75.99-4.83h3.3c-.81,1.56-1.26,3.15-1.26,4.71,0,1.38.54,2.7,2.13,2.7,3.63,0,3.15-8.55,9.42-8.55,3.51,0,5.67,3,5.67,7.05,0,2.31-.66,4.47-1.71,5.97l-2.76-1.41Z" fill="#fff"/><path d="m162.87,77.85v-4.77c0-1.83.27-3.27.84-4.44,1.02-2.04,2.94-3.21,5.64-3.21,2.28,0,4.65.99,5.79,3.78.42,1.08.69,2.43.69,4.2v.84h6.81v3.6h-19.77Zm10.02-4.68c0-.96-.15-1.74-.45-2.31-.54-1.11-1.62-1.65-3.09-1.65-1.29,0-2.4.51-3.03,1.56-.33.57-.51,1.38-.51,2.46v1.02h7.08v-1.08Z" fill="#fff"/></svg>