<svg xmlns="http://www.w3.org/2000/svg" width="200.9547mm" height="47.625mm" viewBox="0 0 569.6355 135"><defs><style>.a{fill:#0072af;}.b{fill:#3c3d43;}.c{fill:#fff;}</style></defs><path class="a" d="M177.7988,0H55.5062A15.5518,15.5518,0,0,0,40,15.5063V135H177.7988a15.5518,15.5518,0,0,0,15.5062-15.5062V15.5063A15.5518,15.5518,0,0,0,177.7988,0Z"/><path class="b" d="M137.7988,0H15.5062A15.5518,15.5518,0,0,0,0,15.5063V135H137.7988a15.5518,15.5518,0,0,0,15.5062-15.5062V15.5063A15.5518,15.5518,0,0,0,137.7988,0Z"/><path class="c" d="M37.679,27.0047a10.6779,10.6779,0,0,1-3.1585,7.8461,10.4131,10.4131,0,0,1-7.6726,3.18,10.4356,10.4356,0,0,1-7.6377-3.18,10.62,10.62,0,0,1-3.1933-7.8461,10.8731,10.8731,0,0,1,10.831-10.8924,10.4252,10.4252,0,0,1,7.6726,3.1759A10.5387,10.5387,0,0,1,37.679,27.0047Zm-.58,91.234H16.5325V43.6051H37.0993Z"/><path class="c" d="M77.0083,27.0047a10.6892,10.6892,0,0,1-3.16,7.8461,10.8061,10.8061,0,0,1-15.3116,0,10.63,10.63,0,0,1-3.1933-7.8461,10.4923,10.4923,0,0,1,3.1933-7.7165,10.8159,10.8159,0,0,1,18.4714,7.7165Zm-.5822,91.234H55.8592V43.6051H76.4261Z"/><path class="c" d="M136.9621,56.5089h-19.596v38.26q0,5.8294,1.9338,8.5579,1.9332,2.7246,7.48,2.7245a30.0375,30.0375,0,0,0,5.0908-.4221,33.7812,33.7812,0,0,0,4.5141-1.0736v11.6722a32.7317,32.7317,0,0,1-8.0919,2.0113,70.4651,70.4651,0,0,1-9.4434.6491q-10.1925,0-16.12-6.5787-5.93-6.5828-5.93-18.9055V56.378H87.9689V45.7459l9.6077-.5194L104.47,20.39h12.8957V45.0982h19.596Z"/><path class="b" d="M213.3288,42.7306V20.3268h4.6573V42.7306Z"/><path class="b" d="M229.58,43.07a12.6271,12.6271,0,0,1-7.14-2.1074l1.8017-3.3657a9.2836,9.2836,0,0,0,5.1338,1.7339c1.6318,0,3.4678-.6124,3.4678-2.3121,0-2.9575-5.44-3.4677-8.1592-6.5615a5.8251,5.8251,0,0,1-1.4277-3.9775c0-3.3994,2.6855-6.3911,7.6152-6.3911a11.479,11.479,0,0,1,5.6436,1.36L236.447,25.46a11.025,11.025,0,0,0-5.3379-1.6319c-1.665,0-2.957.7481-2.957,2.04,0,3.8754,9.6211,3.5356,9.6211,10.5727C237.7732,40.5206,234.17,43.07,229.58,43.07Z"/><path class="b" d="M257.73,24.1344h-6.0166V42.7306h-4.6924V24.1344h-6.56V20.3268h18.3242Z"/><path class="b" d="M262.22,42.7306V20.3268h4.6573V42.7306Z"/><path class="b" d="M287.99,24.1344h-6.0176V42.7306H277.281V24.1344H270.72V20.3268h18.3243Z"/><path class="b" d="M309.5115,40.4869c-1.6661,1.6655-4.0792,2.5835-7.4786,2.5835-3.2978,0-5.7461-.748-7.3437-2.3115a8.5572,8.5572,0,0,1-2.21-6.29V20.3268h4.624V34.0953a5.36,5.36,0,0,0,1.2579,3.6719A4.9211,4.9211,0,0,0,302.1,39.1607a4.9738,4.9738,0,0,0,3.91-1.3935,4.851,4.851,0,0,0,1.122-3.4678V20.3268H311.79V33.9933A8.8982,8.8982,0,0,1,309.5115,40.4869Z"/><path class="b" d="M332.9372,24.1344h-6.0166V42.7306h-4.6924V24.1344h-6.56V20.3268h18.3242Z"/><path class="b" d="M354.7966,39.7389a12.6861,12.6861,0,0,1-16.42.6118,11.242,11.242,0,0,1-3.57-8.5669,11.7691,11.7691,0,0,1,3.23-8.3633,11.4175,11.4175,0,0,1,8.3291-3.3315,11.63,11.63,0,0,1,8.7373,3.4677,11.5583,11.5583,0,0,1,2.8213,7.9551A11.51,11.51,0,0,1,354.7966,39.7389Zm-8.4307-15.8423c-3.8759,0-6.6972,2.8218-6.6972,7.7173s2.8213,7.7173,6.6972,7.7173c3.8077,0,6.6289-2.8218,6.6289-7.7173C352.9948,26.7862,350.2409,23.8966,346.3659,23.8966Z"/><path class="b" d="M371.7986,42.7306V20.3268h4.6572V42.7306Z"/><path class="b" d="M397.2282,24.1344h-6.0175V42.7306h-4.6914V24.1344h-6.5616V20.3268H398.282Z"/><path class="b" d="M413.1052,42.7306l-2.1758-5.4737h-7.6152l-2.0733,5.4737h-4.59l8.7715-22.5059h3.5361l9.1445,22.5059Zm-5.1328-13.5645a24.3343,24.3343,0,0,1-.8164-2.7539h-.0332a17.6277,17.6277,0,0,1-.8164,2.6856l-1.666,4.42h4.8613Z"/><path class="b" d="M421.3689,42.7306V20.3268h4.623v18.562H433.88v3.8418Z"/><path class="b" d="M437.2126,42.7306V20.3268H441.87V42.7306Z"/><path class="b" d="M461.5886,42.7306l-2.1758-5.4737h-7.6152l-2.0733,5.4737h-4.59l8.7715-22.5059h3.5351l9.1446,22.5059Zm-5.1338-13.5645a24.2962,24.2962,0,0,1-.8154-2.7539h-.0342a17.403,17.403,0,0,1-.8164,2.6856l-1.665,4.42h4.8613Z"/><path class="b" d="M486.3406,42.7306l-9.7237-12.4429c-.85-1.0879-1.4619-1.9717-2.1416-2.9575h-.0674c.0674.748.0674,2.1079.0674,3.1274v12.273h-4.624V20.3268h4.6924l9.3828,11.9668c.8838,1.122,1.4961,2.0058,2.1074,2.9238h.0684c-.0684-1.0542-.0684-2.5156-.0684-3.4678V20.3268h4.624V42.7306Z"/><path class="b" d="M514.8659,39.7389a12.6874,12.6874,0,0,1-16.4209.6118,11.2448,11.2448,0,0,1-3.5693-8.5669,11.7685,11.7685,0,0,1,3.23-8.3633,11.419,11.419,0,0,1,8.3291-3.3315,11.6289,11.6289,0,0,1,8.7373,3.4677,11.5547,11.5547,0,0,1,2.8223,7.9551A11.51,11.51,0,0,1,514.8659,39.7389Zm-8.4316-15.8423c-3.876,0-6.6973,2.8218-6.6973,7.7173s2.8213,7.7173,6.6973,7.7173c3.8076,0,6.63-2.8218,6.63-7.7173C513.0642,26.7862,510.31,23.8966,506.4343,23.8966Z"/><path class="b" d="M220.3659,80.53h-7.0371V58.1266h7.4453c7.9893,0,12.4766,4.3178,12.4766,11.0151C233.2507,76.0431,228.1169,80.53,220.3659,80.53Zm.1026-18.5284h-2.4824V76.6886h2.55c5.542,0,7.7177-3.5015,7.7177-7.4112C228.2536,64.858,225.6013,62.002,220.4685,62.002Z"/><path class="b" d="M237.4685,80.53V58.1266h4.6582V80.53Z"/><path class="b" d="M270.032,61.9342h-6.0176V80.53H259.323V61.9342h-6.5615V58.1266h18.3242Z"/><path class="b" d="M274.1814,80.53V58.1266h12.9863l-1.2236,3.8076h-7.1055V67.17h7.14v3.8418h-7.14v5.7115h8.2949V80.53Z"/><path class="b" d="M301.9577,80.87c-7.31,0-11.457-4.9975-11.457-11.3208,0-6.4253,4.8281-11.6606,12.4775-11.6606a13.3315,13.3315,0,0,1,5.8467,1.19l-.0674,4.1475a10.8357,10.8357,0,0,0-5.6093-1.564c-5.27,0-7.5821,3.6719-7.5821,7.5474,0,4.2837,2.7539,7.6489,7.1739,7.6489a11.2387,11.2387,0,0,0,5.5752-1.53l1.2578,3.2637A13.9792,13.9792,0,0,1,301.9577,80.87Z"/><path class="b" d="M329.9392,80.53l-9.7236-12.4429c-.85-1.0879-1.462-1.9717-2.1416-2.9575h-.0684c.0684.748.0684,2.1079.0684,3.1274V80.53h-4.6231V58.1266h4.6914l9.3828,11.9668c.8838,1.122,1.4961,2.0058,2.1074,2.9238h.0684c-.0684-1.0542-.0684-2.5156-.0684-3.4678V58.1266h4.6241V80.53Z"/><path class="b" d="M358.4646,77.5387a12.6874,12.6874,0,0,1-16.4209.6118,11.2448,11.2448,0,0,1-3.5694-8.5669,11.7727,11.7727,0,0,1,3.2295-8.3633,11.4192,11.4192,0,0,1,8.3291-3.3315,11.69,11.69,0,0,1,8.4317,19.65Zm-8.4317-15.8423c-3.875,0-6.6972,2.8218-6.6972,7.7173s2.8222,7.7173,6.6972,7.7173c3.8077,0,6.63-2.8218,6.63-7.7173C356.6628,64.586,353.9089,61.6964,350.0329,61.6964Z"/><path class="b" d="M365.81,80.53V58.1266h4.623v18.562H378.32V80.53Z"/><path class="b" d="M400.6911,77.5387a12.6861,12.6861,0,0,1-16.42.6118,11.2448,11.2448,0,0,1-3.5693-8.5669,11.7685,11.7685,0,0,1,3.2295-8.3633,11.419,11.419,0,0,1,8.3291-3.3315,10.7948,10.7948,0,0,1,11.5586,11.4228A11.51,11.51,0,0,1,400.6911,77.5387Zm-8.4306-15.8423c-3.876,0-6.6973,2.8218-6.6973,7.7173s2.8213,7.7173,6.6973,7.7173c3.8076,0,6.63-2.8218,6.63-7.7173C398.89,64.586,396.1365,61.6964,392.2605,61.6964Z"/><path class="b" d="M418.44,80.87c-7.1055,0-11.3545-5.0312-11.3545-11.3208,0-6.5273,5.0654-11.6606,12.7148-11.6606A19.6114,19.6114,0,0,1,426.531,59.01l-.0674,4.2159a13.0425,13.0425,0,0,0-6.0859-1.564c-5.9493,0-8.2266,3.6035-8.2266,7.5474,0,4.3174,2.8213,7.9214,7.4785,7.9214a9.0194,9.0194,0,0,0,3.2979-.544V69.0733h4.6582v9.5874A19.2984,19.2984,0,0,1,418.44,80.87Z"/><path class="b" d="M432.3806,80.53V58.1266h4.6582V80.53Z"/><path class="b" d="M456.7566,80.53l-2.1758-5.4737h-7.6152L444.8923,80.53h-4.59l8.7715-22.5059h3.5351L461.7546,80.53Zm-5.1328-13.5645a24.1305,24.1305,0,0,1-.8165-2.7539h-.0341a17.5,17.5,0,0,1-.8155,2.6856l-1.666,4.42h4.8614Z"/><path class="a" d="M225.2956,118.3307c-3.3994-5.8135-4.76-8.3291-5.5752-8.6353h-1.7343v8.6353h-4.6573V95.9269h6.5274c5.9834,0,8.1592,2.958,8.1592,6.4252a6.4228,6.4228,0,0,1-4.08,5.8135V108.2c1.122.646,3.2978,4.4194,6.664,10.1309Zm-5.3369-18.5284h-1.9726v6.4937h1.9726a3.3616,3.3616,0,0,0,3.4336-3.4336C223.3923,101.1285,222.1677,99.8023,219.9587,99.8023Z"/><path class="a" d="M233.865,118.3307V95.9269h12.9863l-1.2236,3.8076h-7.1055V104.97h7.14v3.8418h-7.14v5.7114h8.2949v3.8077Z"/><path class="a" d="M266.1628,118.3307v-9.3833H255.7937v9.3833h-4.6572V95.9269h4.6572v9.0092h10.3691V95.9269H270.82v22.4038Z"/><path class="a" d="M290.5407,118.3307l-2.1757-5.4737H280.75l-2.0742,5.4737h-4.59l8.7715-22.5059h3.5361l9.1445,22.5059Zm-5.1337-13.5645a24.093,24.093,0,0,1-.8155-2.7539h-.0342a17.5026,17.5026,0,0,1-.8164,2.6855l-1.665,4.42h4.8613Z"/><path class="a" d="M306.4187,118.3307h-7.6153V95.9269h7.4112c4.4883,0,6.664,2.8559,6.664,5.6093a5.0913,5.0913,0,0,1-2.6523,4.5557v.0342a5.4619,5.4619,0,0,1,4.1484,5.4394C314.3747,114.795,311.8923,118.3307,306.4187,118.3307ZM305.195,99.8023h-1.7334v5.27h2.2774a2.6356,2.6356,0,0,0,2.55-2.6519C308.2888,100.9244,307.3025,99.8023,305.195,99.8023Zm.8165,9.0772h-2.55v5.6094h2.38c2.6172,0,3.8408-1.02,3.8408-2.9576C309.6823,109.9,308.39,108.88,306.0115,108.88Z"/><path class="a" d="M341.0564,99.7345H335.04v18.5962h-4.6924V99.7345h-6.5606V95.9269h18.3243Z"/><path class="a" d="M345.2068,118.3307V95.9269h12.9863L356.97,99.7345H349.864V104.97h7.14v3.8418h-7.14v5.7114h8.2949v3.8077Z"/><path class="a" d="M372.9831,118.6705c-7.3095,0-11.457-4.9976-11.457-11.3208,0-6.4253,4.8271-11.6606,12.4766-11.6606a13.3328,13.3328,0,0,1,5.8476,1.19l-.0674,4.1475a10.8357,10.8357,0,0,0-5.6093-1.564c-5.27,0-7.5821,3.6719-7.5821,7.5474,0,4.2837,2.7539,7.6494,7.1739,7.6494a11.2392,11.2392,0,0,0,5.5752-1.53l1.2578,3.2637A13.9792,13.9792,0,0,1,372.9831,118.6705Z"/><path class="a" d="M399.5027,118.3307v-9.3833H389.1335v9.3833h-4.6572V95.9269h4.6572v9.0092h10.3692V95.9269H404.16v22.4038Z"/><path class="a" d="M425.8181,118.3307l-9.7236-12.4429c-.85-1.0879-1.462-1.9717-2.1416-2.9575h-.0684c.0684.748.0684,2.1079.0684,3.1274v12.273H409.33V95.9269h4.6914l9.3828,11.9668c.8838,1.122,1.4961,2.0058,2.1075,2.9238h.0683c-.0683-1.0537-.0683-2.5156-.0683-3.4678V95.9269h4.624v22.4038Z"/><path class="a" d="M454.3435,115.339a12.6874,12.6874,0,0,1-16.4209.6118,11.2442,11.2442,0,0,1-3.5694-8.5669,11.7727,11.7727,0,0,1,3.2295-8.3633,11.4192,11.4192,0,0,1,8.3291-3.3315,11.69,11.69,0,0,1,8.4317,19.65Zm-8.4317-15.8423c-3.875,0-6.6972,2.8218-6.6972,7.7173s2.8222,7.7168,6.6972,7.7168c3.8077,0,6.63-2.8213,6.63-7.7168C452.5417,102.3863,449.7878,99.4967,445.9118,99.4967Z"/><path class="a" d="M461.6892,118.3307V95.9269h4.623v18.562h7.8868v3.8418Z"/><path class="a" d="M496.57,115.339a12.6861,12.6861,0,0,1-16.42.6118,11.2441,11.2441,0,0,1-3.5693-8.5669,11.7685,11.7685,0,0,1,3.2295-8.3633,11.419,11.419,0,0,1,8.3291-3.3315,10.7941,10.7941,0,0,1,11.5586,11.4228A11.51,11.51,0,0,1,496.57,115.339Zm-8.4306-15.8423c-3.876,0-6.6973,2.8218-6.6973,7.7173s2.8213,7.7168,6.6973,7.7168c3.8076,0,6.6289-2.8213,6.6289-7.7168C494.7683,102.3863,492.0154,99.4967,488.1394,99.4967Z"/><path class="a" d="M514.3191,118.6705c-7.1055,0-11.3545-5.0312-11.3545-11.3208,0-6.5273,5.0644-11.6606,12.7138-11.6606a19.6132,19.6132,0,0,1,6.7315,1.1215l-.0684,4.2159a13.0354,13.0354,0,0,0-6.0849-1.564c-5.9493,0-8.2276,3.6035-8.2276,7.5474,0,4.3173,2.8223,7.9209,7.48,7.9209a9.0144,9.0144,0,0,0,3.2979-.544v-7.5132h4.6572v9.5874A19.2984,19.2984,0,0,1,514.3191,118.6705Z"/><path class="a" d="M528.26,118.3307V95.9269h4.6582v22.4038Z"/><path class="a" d="M538.0857,118.3307V95.9269H551.072l-1.2236,3.8076h-7.1055V104.97h7.14v3.8418h-7.14v5.7114h8.2949v3.8077Z"/><path class="a" d="M561.4421,118.6705a12.623,12.623,0,0,1-7.14-2.1079l1.8027-3.3652a9.2761,9.2761,0,0,0,5.1328,1.7334c1.6328,0,3.4678-.6119,3.4678-2.3116,0-2.9575-5.4395-3.4677-8.1592-6.5615a5.8251,5.8251,0,0,1-1.4277-3.9775c0-3.3994,2.6855-6.3911,7.6152-6.3911a11.479,11.479,0,0,1,5.6436,1.36l-.0674,4.0117a11.0237,11.0237,0,0,0-5.3379-1.6318c-1.666,0-2.958.7476-2.958,2.04,0,3.8754,9.6211,3.5356,9.6211,10.5727C569.6355,116.1207,566.032,118.6705,561.4421,118.6705Z"/><path class="c" d="M182.6413,106.38c-5.1,3.06-7.56,4.4394-7.8,5.1894v1.68h7.8v3.63H162.8718v-5.34c0-5.13,2.55-7.05,5.58-7.05a5.66,5.66,0,0,1,5.1894,3.66h.03c.51-.9,3.93-2.88,8.97-5.91Zm-16.709,5.07v1.8h6.1495v-1.83a3.19,3.19,0,0,0-3.21-3.27C167.2517,108.149,165.9323,109.1993,165.9323,111.4493Z"/><path class="c" d="M165.9021,87.39v5.4h16.7392v3.66H165.9021v5.73h-3.03V86.52Z"/><path class="c" d="M182.6413,83.85H162.8718V72.84l3.03.99v6.39h5.13v-6.39h3.0293v6.39h5.55V72.84h3.03Z"/><path class="c" d="M182.9411,59.9708c0,6.3-4.35,9.96-9.9892,9.96-5.67,0-10.26-4.2-10.26-10.71a10.9626,10.9626,0,0,1,1.08-5.13l3.3.03a9.34,9.34,0,0,0-1.41,5.01c0,4.59,3.33,6.87,7.05,6.87,3.99,0,7.08-2.52,7.08-6.6a9.99,9.99,0,0,0-1.32-4.86l2.61-.99A12.116,12.116,0,0,1,182.9411,59.9708Z"/><path class="c" d="M182.6413,36.961h-8.46v9.57h8.46v3.63H162.8718v-3.63h8.16v-9.57h-8.16v-3.63h19.7695Z"/></svg>